<svg width="24" height="22" fill="none" xmlns="http://www.w3.org/2000/svg"><path fill-rule="evenodd" clip-rule="evenodd" d="M11.34 5.5a4.392 4.392 0 0 1 .936-2.603 5.051 5.051 0 0 1 1.863-1.194 5.242 5.242 0 0 1 2.22-.3.747.747 0 0 1 .508.2.685.685 0 0 1 .21.487.662.662 0 0 1-.21.486.721.721 0 0 1-.508.202 3.877 3.877 0 0 0-1.6.18 3.75 3.75 0 0 0-1.371.81c-.38.51-.59 1.114-.608 1.732h5.467c.132 0 .262.036.375.102a.71.71 0 0 1 .267.274c.517.917 3.105 5.793 3.105 7.333 0 1.247 0 4.208-3.728 4.208-2.75 0-4.188-2.448-4.677-3.502h-2.97c-.49 1.09-1.927 3.502-4.677 3.502-3.728 0-3.728-2.998-3.728-4.272 0-1.55 2.587-6.417 3.105-7.333a.71.71 0 0 1 .278-.237.756.756 0 0 1 .363-.075h5.38Z" fill="#fff"/><path d="M15.825 13.719c-.295 0-.577-.113-.786-.313a1.158 1.158 0 0 1-.237-.354.997.997 0 0 1-.006-.805 1.203 1.203 0 0 1 .6-.585c.205-.075.429-.092.644-.05.215.043.414.144.571.29.105.098.188.215.244.344a.997.997 0 0 1-.006.806 1.158 1.158 0 0 1-.238.354c-.208.2-.49.312-.786.313Z" fill="#4A58FB"/><path d="M15.825 9.108c-.295 0-.578-.113-.786-.312-.21-.2-.326-.47-.326-.753 0-.141.03-.281.089-.411a.949.949 0 0 1 .237-.34c.212-.193.494-.3.786-.3.293 0 .574.107.786.3a.95.95 0 0 1 .238.34.972.972 0 0 1 0 .809 1.018 1.018 0 0 1-.238.354c-.208.2-.49.312-.786.313Z" fill="#1BB76E"/><path d="M12.309 10.355c0-.282.117-.553.326-.752.108-.097.234-.173.37-.227a1.126 1.126 0 0 1 .842-.006c.136.054.258.133.36.233.105.098.191.213.253.34.078.197.095.411.05.617a1.093 1.093 0 0 1-1.089.86c-.143 0-.285-.03-.415-.086a1.225 1.225 0 0 1-.37-.227c-.21-.2-.327-.47-.327-.752Z" fill="#B4B9C2"/><path d="M17.178 10.355c0-.282.117-.553.326-.752.108-.097.234-.173.371-.227a1.126 1.126 0 0 1 .842-.006c.135.054.257.133.36.233.105.098.19.213.252.34.078.197.095.411.05.617a1.092 1.092 0 0 1-1.089.86c-.143 0-.284-.03-.415-.086a1.225 1.225 0 0 1-.37-.227c-.21-.2-.327-.47-.327-.752Z" fill="#FC6369"/><rect x="4.775" y="9.172" width="3.984" height="1.328" rx=".664" fill="#464B57"/><rect x="6.104" y="11.828" width="3.984" height="1.328" rx=".664" transform="rotate(-90 6.104 11.828)" fill="#464B57"/></svg>